<?xml version="1.0" encoding="UTF-8" standalone="no"?>
<!-- Created with Inkscape (http://www.inkscape.org/) -->

<svg
   width="132.17828mm"
   height="132.61497mm"
   viewBox="0 0 132.17828 132.61497"
   version="1.1"
   id="svg1"
   xml:space="preserve"
   inkscape:version="1.4.3 (fcd0343856, 2026-01-01)"
   sodipodi:docname="feirb-logo.svg"
   xmlns:inkscape="http://www.inkscape.org/namespaces/inkscape"
   xmlns:sodipodi="http://sodipodi.sourceforge.net/DTD/sodipodi-0.dtd"
   xmlns:xlink="http://www.w3.org/1999/xlink"
   xmlns="http://www.w3.org/2000/svg"
   xmlns:svg="http://www.w3.org/2000/svg"><sodipodi:namedview
     id="namedview1"
     pagecolor="#ffffff"
     bordercolor="#000000"
     borderopacity="0.25"
     inkscape:showpageshadow="2"
     inkscape:pageopacity="0.0"
     inkscape:pagecheckerboard="0"
     inkscape:deskcolor="#d1d1d1"
     inkscape:document-units="mm"
     inkscape:zoom="0.37193112"
     inkscape:cx="721.90787"
     inkscape:cy="778.36994"
     inkscape:window-width="3374"
     inkscape:window-height="1371"
     inkscape:window-x="0"
     inkscape:window-y="0"
     inkscape:window-maximized="1"
     inkscape:current-layer="layer1" /><defs
     id="defs1"><linearGradient
       id="linearGradient22"
       inkscape:collect="always"><stop
         style="stop-color:#ffffff;stop-opacity:0.42023623;"
         offset="0"
         id="stop21" /><stop
         style="stop-color:#cdcdcd;stop-opacity:0.95689726;"
         offset="1"
         id="stop22" /></linearGradient><linearGradient
       id="linearGradient18"
       inkscape:collect="always"><stop
         style="stop-color:#ffffff;stop-opacity:0.03923772;"
         offset="0"
         id="stop19" /><stop
         style="stop-color:#cdcdcd;stop-opacity:0.90177685;"
         offset="1"
         id="stop20" /></linearGradient><linearGradient
       id="linearGradient16"
       inkscape:collect="always"><stop
         style="stop-color:#ccc733;stop-opacity:1;"
         offset="0"
         id="stop17" /><stop
         style="stop-color:#cc7133;stop-opacity:1;"
         offset="1"
         id="stop18" /></linearGradient><linearGradient
       id="linearGradient15"
       inkscape:collect="always"><stop
         style="stop-color:#cccc33;stop-opacity:1;"
         offset="0"
         id="stop15" /><stop
         style="stop-color:#cc6333;stop-opacity:1;"
         offset="1"
         id="stop16" /></linearGradient><linearGradient
       id="linearGradient13"
       inkscape:collect="always"><stop
         style="stop-color:#cc7933;stop-opacity:1;"
         offset="0"
         id="stop13" /><stop
         style="stop-color:#cc3333;stop-opacity:1;"
         offset="1"
         id="stop14" /></linearGradient><linearGradient
       id="linearGradient11"
       inkscape:collect="always"><stop
         style="stop-color:#cccc33;stop-opacity:1;"
         offset="0"
         id="stop11" /><stop
         style="stop-color:#cc7b33;stop-opacity:1;"
         offset="1"
         id="stop12" /></linearGradient><linearGradient
       inkscape:collect="always"
       xlink:href="#linearGradient11"
       id="linearGradient12"
       x1="76.158051"
       y1="53.584972"
       x2="109.21046"
       y2="91.056244"
       gradientUnits="userSpaceOnUse" /><linearGradient
       inkscape:collect="always"
       xlink:href="#linearGradient13"
       id="linearGradient14"
       x1="66.093094"
       y1="37.484398"
       x2="119.97019"
       y2="82.055084"
       gradientUnits="userSpaceOnUse" /><radialGradient
       inkscape:collect="always"
       xlink:href="#linearGradient15"
       id="radialGradient16"
       cx="77.881493"
       cy="69.988976"
       fx="77.881493"
       fy="69.988976"
       r="14.570161"
       gradientTransform="matrix(1,0,0,0.85422549,0,11.468761)"
       gradientUnits="userSpaceOnUse" /><radialGradient
       inkscape:collect="always"
       xlink:href="#linearGradient16"
       id="radialGradient18"
       cx="47.998283"
       cy="105.12778"
       fx="47.998283"
       fy="105.12778"
       r="21.938957"
       gradientTransform="matrix(1,0,0,1.0481335,0,-4.9898462)"
       gradientUnits="userSpaceOnUse" /><linearGradient
       inkscape:collect="always"
       xlink:href="#linearGradient22"
       id="linearGradient21"
       x1="79.54953"
       y1="107.61442"
       x2="96.919006"
       y2="118.17783"
       gradientUnits="userSpaceOnUse" /><linearGradient
       inkscape:collect="always"
       xlink:href="#linearGradient18"
       id="linearGradient23"
       gradientUnits="userSpaceOnUse"
       x1="18.611973"
       y1="73.182564"
       x2="25.119646"
       y2="89.589577" /></defs><g
     inkscape:label="Layer 1"
     inkscape:groupmode="layer"
     id="layer1"
     transform="translate(-9.9873724,-0.7113769)"><g
       id="g23"><path
         style="fill:url(#linearGradient12);stroke:none;stroke-width:1.05833;stroke-linecap:round;stroke-linejoin:round"
         d="m 40.918145,62.472146 -1.218173,7.611176 22.171448,3.420427 10.060392,-8.802843 11.317944,-2.577976 9.494496,4.527177 5.093073,7.859681 -1.29122,9.241718 -5.663387,7.369363 -1.659605,1.623383 13.530407,17.414888 8.05218,-3.98002 2.68811,-1.04801 -4.40142,-10.500535 10.8778,-12.575492 15.02771,-13.455775 -22.573,-9.305864 8.23694,-11.129311 -12.63837,-12.13535 -28.797873,3.018118 -22.510128,21.441214 z"
         id="path11"
         sodipodi:nodetypes="cccccccccccccccccccccc" /><path
         style="fill:url(#radialGradient18);fill-opacity:1;stroke:none;stroke-width:1.05833;stroke-linecap:round;stroke-linejoin:round"
         d="m 64.815113,80.671886 -1.146849,5.760447 -18.851499,8.892217 -8.186589,4.455301 -3.23464,7.687929 c 0,0 -1.317315,6.8115 10.104564,14.4906 11.421879,7.6791 20.187744,3.64383 20.187744,3.64383 l 7.43084,-4.984 3.87663,-24.860211 2.231858,-9.220282 z"
         id="path8"
         sodipodi:nodetypes="ccccczccccc" /><path
         style="fill:url(#linearGradient23);fill-opacity:1;stroke:none;stroke-width:1.05833;stroke-linecap:round;stroke-linejoin:round"
         d="m 62.461552,76.123525 c -18.425362,-5.82125 -44.461079,-2.489819 -43.838624,5.513174 0.622455,8.002994 9.348383,9.046632 13.794489,9.135555 4.446108,0.08892 28.6473,-5.775505 32.397697,-10.100368 3.750395,-4.32486 -2.353562,-4.548361 -2.353562,-4.548361 z"
         id="path5"
         sodipodi:nodetypes="csssc" /><path
         style="fill:url(#linearGradient21);fill-opacity:1;stroke:none;stroke-width:1.05833;stroke-linecap:round;stroke-linejoin:round"
         d="m 79.812414,89.198636 c -1.813242,25.756054 6.049008,37.723624 14.490073,36.779864 5.875743,-0.65693 6.510923,-3.75866 5.482348,-11.986 C 98.75627,105.76517 85.227621,90.276496 85.227621,90.276496 Z"
         id="path6"
         sodipodi:nodetypes="csscc" /><path
         style="fill:url(#radialGradient16);fill-opacity:1;stroke:none;stroke-width:1.05833;stroke-linecap:round;stroke-linejoin:round"
         d="m 68.027146,72.526792 c 6.23166,-6.057834 10.836305,-6.8262 17.607895,-6.045849 6.77159,0.780348 12.147594,6.390489 11.475604,14.170038 -0.688988,7.976344 -6.227926,10.469888 -6.227926,10.469888 L 74.157316,88.354262 Z"
         id="path7"
         sodipodi:nodetypes="cssccc" /><path
         style="fill:url(#linearGradient14)"
         d="m 97.741031,92.299448 c 1.632649,-2.772272 3.261689,3.134017 5.940889,1.784317 2.58667,-1.3031 2.70412,-1.60807 0.6917,-1.79599 -4.227,-0.39473 -4.736877,-1.92846 -0.88496,-2.662 5.0041,-0.95294 8.59297,-2.90026 12.83522,-6.96438 2.83364,-2.71466 2.83364,-2.71466 0.84926,-1.82611 -4.88835,2.18889 -8.7633,2.84849 -8.95095,1.52366 -0.1758,-1.24123 0.96599,-1.9797 5.77595,-3.7357 5.59833,-2.04382 8.69935,-3.68764 13.15708,-6.97446 2.29554,-1.69257 2.76455,-2.30673 0.82799,-1.08423 -7.28528,4.599 -20.99965,6.92459 -21.80939,3.6983 -0.31379,-1.25022 0.50447,-2.0024 2.17833,-2.0024 2.60647,0 4.37345,-4.063349 3.15472,-7.254565 -1.00637,-2.63513 -4.21193,-4.39446 -7.27847,-3.99469 -2.78046,0.36247 -3.05359,0.33233 -3.14989,-0.3476 -0.32348,-2.28374 5.84081,-6.6104 13.02365,-9.1412 1.11053,-0.39128 0.12579,-0.39624 -2.1057,-0.0106 -5.58718,0.96554 -10.86776,2.61449 -14.278682,4.45874 -3.99666,2.16096 -6.01659,1.09699 -3.77972,-1.99092 0.86547,-1.19475 0.83062,-1.18731 -1.05814,0.22582 -0.7994,0.5981 -0.7994,0.5981 -1.37386,-0.13221 -1.96323,-2.49585 3.79958,-9.07995 11.644172,-13.30364 2.76444,-1.48843 2.30363,-1.50965 -1.7198,-0.0792 -5.993622,2.13092 -11.772612,5.43439 -14.655032,8.37734 -1.29997,1.32726 -1.48688,1.43241 -2.11667,1.19073 -2.14618,-0.82358 -4.38034,0.55135 -5.82009,3.58176 -1.43681,3.02424 -2.89435,3.93382 -3.88381,2.42371 -1.25045,-1.90842 2.31513,-7.71052 7.28799,-11.85941 1.23986,-1.03442 2.37335,-1.98362 2.51887,-2.10933 0.72556,-0.6268 -1.11438,0.37365 -3.83952,2.08768 -7.22111,4.54189 -11.70946,9.41066 -13.91139,15.09052 -0.51737,1.33456 -1.10191,2.48834 -1.29898,2.56396 -0.99822,0.38306 -1.32104,-1.81338 -0.54093,-3.68043 0.53516,-1.28084 0.36353,-1.43548 -0.40122,-0.36149 -1.20641,1.69424 -1.82231,3.67691 -1.84233,5.93066 -0.0248,2.794366 -7.845182,7.76135 -10.177542,7.32311 -3.34166,-0.62788 -4.75796,2.128667 -11.18482,1.677507 -2.47411,-0.173666 -1.174408,-6.812057 -0.992098,-8.303207 1.14139,-9.33596 6.61925,-17.08051 16.12369,-22.79557 1.11225,-0.66879 1.08683,-0.49881 -0.16643,1.11328 -2.57523,3.31255 -3.53466,9.31403 -1.85097,11.57818 1.25939,1.69357 2.52478,0.65344 3.58214,-2.94446 2.94121,-10.00821 9.51216,-17.72849 19.53607,-22.95315 2.44232,-1.27299 8.79781,-3.721724 9.65941,-3.721724 0.11722,0 -0.7984,0.61895 -2.03472,1.37546 -6.29211,3.850134 -9.00234,9.743994 -4.3884,9.543344 1.85753,-0.0808 9.41694,-2.69649 14.26609,-4.93635 1.13757,-0.52546 2.11493,-0.95537 2.17191,-0.95537 0.20791,0 5.300722,-2.99823 5.943162,-3.49884 8.72308,-6.797357 11.61926,-16.024012 7.81646,-24.901735 -0.49961,-1.166352 -0.46193,-1.15511 1.73284,0.517007 8.43833,6.428836 11.74492,18.486748 7.37309,26.886938 -0.9135,1.75524 -1.87856,3.25012 -3.77406,5.84602 -3.15868,4.32584 -0.51392,6.57354 4.71104,4.00377 5.37835,-2.6452 8.81393,-10.71432 7.14893,-16.790664 -0.31133,-1.13622 2.49067,3.34304 3.35269,5.359594 3.99417,9.34359 2.74416,17.70629 -3.79908,25.41625 -4.50338,5.30638 -5.01515,8.14447 -1.34589,7.46379 5.40511,-1.00269 10.46395,-8.16975 11.58399,-16.41151 0.33539,-2.46799 3.05109,3.98886 3.67228,8.73125 1.55603,11.87917 -3.3765,20.714305 -15.56163,27.873935 -4.963,2.91612 -6.07771,4.19661 -4.78159,5.49273 2.10176,2.10175 9.69769,-1.46069 14.61312,-6.85346 1.37695,-1.51067 1.38289,-1.409 0.10351,1.77021 -3.52887,8.76907 -9.45689,14.2757 -18.52913,17.21197 -5.66655,1.834 -6.00832,3.320225 -0.76351,3.320225 3.97346,0 7.18096,-1.06973 9.56565,-3.190215 1.29058,-1.14761 1.29058,-1.14761 0.8293,-0.23546 -2.68447,5.308315 -17.20601,10.329965 -24.6093,12.220195 -2.81608,0.71901 -1.98892,-2.30882 -3.654624,-4.70384 -1.26011,-1.81184 1.195314,-5.10135 -0.261572,-7.182 -1.456883,-2.08065 -2.763543,-3.142827 -1.096293,-5.973852 z"
         id="path9"
         sodipodi:nodetypes="ssssssssssssssssssssssssssssssssssssssssssssssssssssssssssssssssssssssss" /><path
         style="fill:#000000"
         d="m 33.232146,132.73547 c 2.38848,-3.58047 2.69829,-5.97571 1.18213,-9.1394 -2.56901,-5.36064 -2.85103,-9.82542 -1.01874,-16.12829 0.48578,-1.67102 0.70095,-1.54284 1.08718,0.64769 2.13446,12.10563 14.91975,20.35865 27.44014,17.71286 2.39688,-0.50651 2.38772,-0.45986 -0.19004,0.96703 -5.10035,2.82324 -8.42968,3.63192 -15.01303,3.64659 -5.44982,0.0121 -7.06688,0.29559 -11.15078,1.95455 -2.89533,1.17614 -2.89533,1.17614 -2.33686,0.33897 z m 59.65743,-0.0882 c -7.94458,-0.97842 -15.16757,-7.03225 -17.71726,-14.84942 -0.45677,-1.40042 -0.45677,-1.40042 -1.29832,-0.21676 -4.6559,6.54862 -12.04497,8.11667 -20.59891,4.37131 -4.41871,-1.93474 -5.84793,-3.40733 -2.27394,-2.34295 2.84402,0.84699 6.07343,1.30647 9.19034,1.30761 3.19824,10e-4 3.25829,-0.0824 0.4728,-0.65773 -7.59058,-1.56787 -14.44265,-5.47724 -18.48026,-10.54367 -1.23558,-1.55043 -1.27588,-1.40418 -0.1977,0.71754 1.11866,2.20138 2.32946,3.98003 3.92434,5.76477 1.1377,1.27314 1.61873,2.07426 1.24548,2.07426 -3.18523,0 -10.95047,-8.3112 -11.44159,-12.24604 -0.0766,-0.61348 -0.19426,-1.281 -0.26152,-1.48339 -0.47181,-1.41951 1.25433,-5.71467 3.17228,-7.89357 0.98549,-1.11958 1.02213,-1.21091 0.4199,-1.04668 -11.99783,3.27188 -28.51441,-3.61322 -29.03916,-12.10525 -0.7042901,-11.39768 18.57326,-16.33351 45.91014,-11.75484 3.24329,0.54322 3.24329,0.54322 5.33745,-1.42682 2.0133,-1.89397 3.46661,-2.84341 4.35242,-2.84341 0.22976,0 1.20648,-0.71477 2.17048,-1.58839 3.13736,-2.8432 8.03088,-4.74269 12.47958,-4.84412 3.01485,-0.0687 3.42672,-1.60437 1.1301,-4.21347 -1.24284,-1.41194 -1.38023,-2.36402 -0.43092,-2.98603 1.98565,-1.30105 5.52372,2.6178 5.58225,6.18302 0.0276,1.67912 0.0276,1.67912 1.99917,2.51677 2.86612,1.21769 3.4936,1.59869 5.55496,3.37284 1.85805,1.59917 1.85805,1.59917 3.50503,1.18612 4.762114,-1.19429 8.544444,-0.54938 9.070494,1.54657 0.3876,1.54433 -0.88608,2.25911 -3.08542,1.73149 -1.43186,-0.3435 -3.729794,-0.2018 -4.825804,0.29758 -0.63576,0.28967 -0.63576,0.28967 0.0312,2.18167 1.308444,3.71197 0.96389,9.98189 -0.62081,11.29707 -0.21563,0.17896 -0.10672,0.84252 -0.38197,1.36837 -2.95763,5.65035 -2.65961,5.88054 -5.65824,6.13836 -0.17495,0.015 -1.69229,0.34816 -0.81321,1.35888 18.809424,21.62571 19.614064,41.84974 1.57666,39.62832 z m 4.80813,-4.18736 c 9.204784,-2.73352 4.943024,-19.24265 -8.81346,-34.14147 -3.11869,-3.37766 -3.40003,-3.53623 -2.26135,-1.27454 3.60218,7.15481 6.78347,19.70109 6.02316,23.75392 -0.26248,1.39911 -0.33124,1.21233 -0.93176,-2.53098 -0.96115,-5.99131 -3.57105,-13.74182 -6.69644,-19.88618 -1.55534,-3.05772 -1.63524,-3.0872 -0.98643,-0.36394 1.11331,4.6729 1.25223,8.78735 0.48236,14.2871 -0.4125,2.94683 -0.63182,2.28166 -0.98788,-2.99617 -0.40953,-6.07036 -1.27907,-10.17605 -2.95896,-13.97118 -0.55013,-1.24282 -0.61228,-1.15056 -1.68683,2.50428 -3.22785,10.97866 -2.84946,19.06408 1.20816,25.81606 3.8268,6.36788 12.01906,10.46326 17.60943,8.8031 z m -31.66334,-12.68444 c 0,-5.00667 -4.64984,-12.4047 -8.46666,-13.47071 -2.97541,-0.831 -11.54329,-0.74385 -14.49319,0.14743 -1.22036,0.36871 -1.04932,1.53256 0.22522,1.53256 3.97021,0 14.11099,5.46181 18.68366,10.063 2.97213,2.99067 4.05097,3.45079 4.05097,1.72772 z m 4.86719,-5.7053 c 1.24051,-2.95804 2.54115,-6.96277 2.54115,-7.82436 0,-0.56936 -7.27701,-0.26054 -9.78702,0.41533 -1.43263,0.38577 -1.50775,0.15163 1.36942,4.26808 1.00904,1.44367 2.59676,4.92291 2.59676,5.6904 0,3.24677 1.25951,2.26769 3.27969,-2.54945 z m -3.27969,-9.77555 c 6.69796,-0.42423 6.60693,-0.36822 7.37345,-4.53662 0.88361,-4.80514 0.81365,-5.65808 -0.51992,-6.33841 -1.30599,-0.66627 -1.33402,-0.64752 -1.01913,0.68197 0.2448,1.03355 -0.12516,6.60283 -0.50347,7.57901 -0.42594,1.09911 -8.99,-3.02908 -10.47192,-5.04785 -2.20107,-2.99847 -3.17839,-3.39124 -5.54733,-2.22941 -1.43963,0.70606 -1.43963,0.70606 -0.89778,2.05052 0.29802,0.73946 0.86639,2.44707 1.26304,3.79469 1.0913,3.70774 2.21479,4.69775 5.0314,4.43361 0.94588,-0.0887 3.32713,-0.26309 5.29166,-0.38751 z m -31.06719,-7.96349 c 9.30537,-0.75561 15.54125,-3.13765 25.87442,-9.88372 2.87702,-1.87828 2.87702,-1.87828 1.45521,-1.9667 -4.11256,-0.25576 -15.06016,1.86184 -23.12485,4.47305 -4.86885,1.57645 -5.45466,1.5198 -1.81933,-0.17595 6.15917,-2.87302 11.69834,-4.56775 18.99168,-5.81057 2.01927,-0.34409 3.74567,-0.70492 3.83646,-0.80183 0.21121,-0.22547 -11.94314,0.0977 -16.63598,0.44227 -6.30141,0.46274 -10.70825,1.03771 -16.36089,2.13464 -3.69602,0.71723 -3.63473,0.47855 0.14646,-0.5703 9.32024,-2.58531 18.98881,-3.93677 28.38526,-3.96765 6.11018,-0.0201 6.07972,-0.16589 -0.30109,-1.4415 -26.91213,-5.38014 -50.4318501,1.38059 -41.23658,11.85343 2.89857,3.30128 8.91515,5.43036 16.82686,5.95448 0.30629,0.0203 2.08936,-0.0875 3.96237,-0.23965 z m 56.46719,-6.68302 c 0,-1.65387 -2.35535,-2.8277 -5.68679,-2.83409 -6.99348,-0.0134 -11.60998,-2.63209 -14.31486,-8.12001 -1.47256,-2.98766 -3.69774,-5.04181 -4.54442,-4.19513 -0.74266,0.74266 3.76618,9.54037 5.93131,11.57324 1.57964,1.48314 5.9632,2.63936 12.92622,3.40945 2.7649,0.3058 5.07669,0.60551 5.13733,0.66604 0.28883,0.28834 0.55121,0.0506 0.55121,-0.4995 z m 1.9123,-3.02846 c 2.11955,-3.95527 1.78992,-8.79111 -0.86199,-12.64552 -1.08021,-1.57004 -3.94021,-3.94603 -4.50879,-3.74576 -0.0832,0.0293 -0.35955,-0.1551 -0.61421,-0.40976 -0.25466,-0.25466 -0.66883,-0.46302 -0.92037,-0.46302 -0.25155,0 -0.57046,-0.10039 -0.70871,-0.22309 -2.62815,-2.33262 -10.71498,-1.53633 -15.19286,1.49601 -3.23135,2.18821 -3.37126,2.41465 -1.91644,3.10172 1.33168,0.62893 2.33968,1.60934 4.47915,4.35661 2.42623,3.11548 3.90048,4.30021 6.55796,5.2701 9.12346,3.32973 11.69565,2.22342 11.60263,-4.99034 -0.0531,-4.12117 0.51938,-3.20472 0.65168,1.04315 0.084,2.6984 0.0225,3.24065 -0.54349,4.79191 -0.63826,1.74919 -0.63826,1.74919 0.0432,2.7052 0.89121,1.25031 1.12713,1.21524 1.93227,-0.28721 z"
         id="path4"
         sodipodi:nodetypes="sssssscsssssssccssssscssssssscssssssssscssscsssssssssssscssssssssssssssssssssssssscsssssscssscsscssssssssssssscsssscccsss" /></g></g></svg>
