<?xml version="1.0" encoding="UTF-8" standalone="no"?>
<!-- Created with Inkscape (http://www.inkscape.org/) -->

<svg
   width="61.769676mm"
   height="64.334641mm"
   viewBox="0 0 61.769676 64.334641"
   version="1.1"
   id="svg1"
   inkscape:version="1.4.3 (fcd0343856, 2026-01-01)"
   sodipodi:docname=".svg"
   xmlns:inkscape="http://www.inkscape.org/namespaces/inkscape"
   xmlns:sodipodi="http://sodipodi.sourceforge.net/DTD/sodipodi-0.dtd"
   xmlns="http://www.w3.org/2000/svg"
   xmlns:svg="http://www.w3.org/2000/svg">
  <sodipodi:namedview
     id="namedview1"
     pagecolor="#ffffff"
     bordercolor="#000000"
     borderopacity="0.25"
     inkscape:showpageshadow="2"
     inkscape:pageopacity="0.0"
     inkscape:pagecheckerboard="0"
     inkscape:deskcolor="#d1d1d1"
     inkscape:document-units="mm"
     inkscape:zoom="0.74386223"
     inkscape:cx="51.756896"
     inkscape:cy="336.75591"
     inkscape:window-width="1920"
     inkscape:window-height="1043"
     inkscape:window-x="0"
     inkscape:window-y="0"
     inkscape:window-maximized="1"
     inkscape:current-layer="layer1" />
  <defs
     id="defs1" />
  <g
     inkscape:label="Layer 1"
     inkscape:groupmode="layer"
     id="layer1"
     transform="translate(-91.545833,-59.266667)">
    <path
       style="fill:#000000"
       d="m 130.88693,123.60131 h -1.04797 l -0.7292,-0.57359 -0.7292,-0.57359 -0.36482,-0.87312 -0.3648,-0.87312 v -1.03115 -1.03115 l -0.55253,-0.70243 -0.55253,-0.70242 -0.80791,-0.41779 -0.80791,-0.41779 -1.35154,-0.0399 -1.35154,-0.04 -2.85151,0.38146 -2.85152,0.38146 -2.17557,-0.2812 -2.17557,-0.28119 -1.51467,-0.5798 -1.51469,-0.5798 -1.57913,-1.16249 -1.57914,-1.1625 -1.53639,-2.04835 -1.5364,-2.04835 -0.92604,-0.85938 -0.92604,-0.85939 -1.05833,-0.44305 -1.058338,-0.44306 -1.904357,-0.90176 -1.904358,-0.90175 -1.209543,-1.38147 -1.209544,-1.38147 -0.568993,-1.4552 -0.568994,-1.455215 -0.01601,-2.24896 -0.01601,-2.24896 0.590047,-2.1758 0.590047,-2.1758 v -1.63015 -1.63015 l -0.298921,-1.622303 -0.298921,-1.622302 0.328596,-1.94814 0.328596,-1.948141 0.830221,-1.60094 0.83022,-1.60094 1.984375,-1.675114 1.984375,-1.675113 1.45678,-1.386092 1.456782,-1.386093 1.05253,-1.984375 1.05252,-1.984375 1.76695,-1.764822 1.76694,-1.764823 1.94146,-0.926765 1.94146,-0.926765 1.65691,-0.320041 1.65691,-0.320041 3.63476,0.141461 3.63475,0.141461 3.30729,-0.656003 3.30729,-0.656002 1.55747,0.169956 1.55746,0.169957 1.37723,0.515288 1.37723,0.515289 1.25636,0.893235 1.25635,0.893235 1.54512,1.895741 1.54512,1.895742 0.91178,0.724584 0.91177,0.724585 1.15726,0.488178 1.15727,0.488178 1.85834,0.848226 1.85835,0.848226 1.64317,1.521286 1.64317,1.521286 0.90429,1.496757 0.90429,1.496758 0.42284,1.437084 0.42284,1.437085 v 2.09863 2.09863 l -0.56719,2.285119 -0.56719,2.285113 -0.009,1.45521 -0.009,1.45521 0.21668,2.79642 0.21668,2.79643 -0.447,1.34581 -0.44701,1.34581 -1.05759,1.476905 -1.05758,1.47691 -2.64141,1.87279 -2.6414,1.8728 -0.63478,0.97473 -0.63478,0.97473 -0.4493,1.5875 -0.4493,1.5875 -0.47244,0.92604 -0.47243,0.92604 -0.88308,0.83028 -0.88308,0.83027 -0.81993,0.41263 -0.81993,0.41262 -1.20883,0.30439 -1.20884,0.30438 -0.61707,0.65705 -0.61707,0.65704 -9.7e-4,1.89671 -9.7e-4,1.89672 -0.34098,0.80947 -0.34097,0.80947 -0.75721,0.4473 -0.75721,0.4473 z m 0.54754,-2.38125 h 0.34396 l 0.3175,-0.3175 0.3175,-0.3175 v -0.71919 -0.7192 l -0.16716,-0.43561 -0.16716,-0.43562 -0.48566,1.40617 -0.48566,1.40616 -0.009,0.0661 -0.009,0.0661 z m -18.33561,-7.96408 1.4552,-0.0262 0.66145,-0.19122 0.66146,-0.19123 -1.63016,-0.29421 -1.63016,-0.29421 -1.13601,-0.57955 -1.13601,-0.57954 -1.55447,-1.55448 -1.55448,-1.55448 h -0.10172 -0.10172 l 0.53859,1.25648 0.53859,1.25648 0.63039,0.82648 0.63039,0.82648 1.13672,0.56267 1.13673,0.56266 z m 15.34582,-0.68211 1.19063,-0.11535 1.32291,-0.28252 1.32292,-0.28252 1.88848,-0.862 1.88846,-0.86199 1.11626,-1.15022 1.11625,-1.15022 1.31826,-2.65106 1.31827,-2.65107 -1.20227,1.32292 -1.20229,1.32292 -0.0119,0.18875 -0.0119,0.18875 -2.27457,1.98858 -2.27458,1.98857 -1.82216,0.91159 -1.82216,0.91159 -1.39335,0.277 -1.39337,0.27699 -1.05834,0.18735 -1.05833,0.18735 0.92604,0.18497 0.92604,0.18497 z m -6.08542,-3.16013 1.98439,-0.13394 1.32291,-0.26319 1.32292,-0.26319 2.11666,-0.81709 2.11666,-0.81709 2.04165,-1.30375 2.04165,-1.30375 1.99421,-2.11987 1.99422,-2.11986 1.32127,-2.689005 1.32127,-2.68899 0.41364,-1.5875 0.41364,-1.5875 0.15196,-2.53034 0.15196,-2.530334 -0.31047,-1.835287 -0.31048,-1.835287 -0.6587,-2.007418 -0.65869,-2.007417 -1.34832,-2.190948 -1.34832,-2.190948 -1.62086,-1.651954 -1.62088,-1.651954 -1.8987,-1.227469 -1.89868,-1.227469 -2.02262,-0.809893 -2.0226,-0.809892 -1.98896,-0.380548 -1.98893,-0.380548 -2.15954,0.0046 -2.15954,0.0046 -1.75759,0.372531 -1.75759,0.372531 -1.80748,0.723108 -1.80749,0.723107 -1.45665,0.857667 -1.45666,0.857667 -1.74649,1.54783 -1.7465,1.547829 -1.22536,1.595561 -1.22537,1.595562 -1.06346,2.26936 -1.06346,2.26936 -0.39486,1.702599 -0.39486,1.702599 -0.174295,1.875364 -0.174297,1.875361 0.322872,2.20815 0.32288,2.20814 0.6316,1.99064 0.63161,1.99063 1.19938,2.04312 1.19937,2.043125 1.62409,1.73616 1.62409,1.73616 2.1441,1.41128 2.14408,1.41129 2.00216,0.79603 2.00215,0.79604 1.9666,0.3211 1.96659,0.32109 0.39688,0.0931 0.39687,0.0931 z m -0.26458,-2.07488 -3.0427,0.10119 -1.17073,-0.24785 -1.17073,-0.24784 -1.34281,-0.4396 -1.34281,-0.4396 -1.50658,-0.75327 -1.50657,-0.75328 -1.53614,-1.22011 -1.53613,-1.22011 -0.88134,-0.96635 -0.88132,-0.96636 -1.17971,-1.782385 -1.17971,-1.78238 -0.66706,-1.77219 -0.66705,-1.7722 -0.26661,-1.34021 -0.26661,-1.34022 0.0161,-2.654495 0.0161,-2.6545 0.54347,-2.074938 0.54348,-2.074938 0.68077,-1.355979 0.68076,-1.355978 1.13848,-1.606135 1.13847,-1.606136 1.55666,-1.44119 1.55666,-1.441191 1.68952,-1.006438 1.68951,-1.006438 1.90491,-0.639457 1.90491,-0.639456 1.94705,-0.282811 1.94706,-0.282812 2.11667,0.176867 2.11667,0.176866 1.98437,0.630573 1.98438,0.630573 1.92922,1.07479 1.92923,1.07479 1.84373,1.739286 1.84374,1.739285 1.1527,1.751392 1.15271,1.751392 0.68783,1.742674 0.68783,1.742674 0.41677,2.358368 0.41676,2.358367 -0.17593,1.984375 -0.17592,1.98437 -0.48912,1.93159 -0.48911,1.93158 -0.9349,1.77911 -0.93489,1.77911 -1.28172,1.554585 -1.28171,1.55459 -1.55458,1.28171 -1.55458,1.28171 -1.72632,0.90139 -1.72633,0.90138 -1.85208,0.57554 -1.85208,0.57553 z m -8.28486,-5.69797 h 1.15811 l 0.91744,-0.38333 0.91744,-0.38333 0.90384,-0.68938 0.90383,-0.689395 0.94282,-1.37468 0.94285,-1.37468 0.54731,-1.5875 0.54732,-1.5875 0.38269,-2.51354 0.38267,-2.51354 0.002,-0.16018 0.002,-0.16017 1.65365,-0.15959 1.65364,-0.159595 1.39279,-0.419194 1.39279,-0.419193 0.92231,-0.809801 0.92232,-0.809801 V 84.83134 84.216189 l -0.43972,-0.439719 -0.43973,-0.439719 -0.81705,0.128308 -0.81704,0.128308 -1.79797,0.689387 -1.79799,0.689388 h -0.81219 -0.8122 l 0.18342,-1.521354 0.18341,-1.521355 0.41062,-1.662472 0.41063,-1.662472 0.73322,-0.784924 0.73323,-0.784923 h 0.50759 0.50759 l 0.59356,0.682655 0.59357,0.682655 0.57862,-0.379036 0.57863,-0.379036 0.5701,-0.834494 0.57009,-0.834494 -0.14498,-0.554398 -0.14498,-0.554398 -0.78318,-0.476285 -0.78318,-0.476286 -1.09714,-0.164085 -1.09715,-0.164084 -1.38853,0.412818 -1.38853,0.412819 -1.04937,0.998239 -1.04936,0.998239 -0.83575,1.785943 -0.83574,1.785943 -0.40813,2.497392 -0.40813,2.497393 h -2.46979 -2.46979 l -0.52917,0.529166 -0.52916,0.529167 v 0.408901 0.408902 l 0.64943,0.649432 0.64943,0.649435 h 2.2772 2.27719 l -0.15993,1.25676 -0.15992,1.25678 -0.28895,1.71979 -0.28894,1.71979 -0.50642,1.3731 -0.50642,1.3731 -0.92221,0.80971 -0.9222,0.80971 h -0.72568 -0.72568 l -0.58803,0.41188 -0.58803,0.41188 v 0.69177 0.691765 l 0.43787,0.48386 0.43788,0.48385 z m -10.59443,2.64584 h 0.1125 l -0.27532,-0.51443 -0.27532,-0.51444 -0.28839,-0.17823 -0.28839,-0.17824 -1.80288,-2.7548 -1.802886,-2.754795 -0.702385,-1.92582 -0.702385,-1.92582 -0.198972,-1.83661 -0.198973,-1.83661 -0.209241,1.50382 -0.20924,1.50383 0.292936,2.17668 0.292936,2.17669 0.622009,1.35864 0.622008,1.35865 0.899289,1.027305 0.899294,1.02729 1.55046,1.14345 1.55046,1.14344 z m 42.62564,-3.31658 0.99219,-0.73355 0.8922,-0.819215 0.89221,-0.81921 0.49105,-1.05833 0.49104,-1.05833 0.006,-0.77639 0.006,-0.7764 -0.4362,-1.60485 -0.43623,-1.60486 -0.15909,-0.18624 -0.1591,-0.18624 0.087,1.52279 0.087,1.52278 -0.43233,1.6684 -0.43232,1.6684 -0.6515,1.03204 -0.6515,1.03205 -0.78911,0.703105 -0.78911,0.7031 v 0.25225 0.25225 z m -49.906593,-17.472233 0.168747,-1.871099 0.466282,-0.907026 0.466283,-0.907025 0.99227,-1.465867 0.992271,-1.465868 0.424697,-0.352467 0.424696,-0.352467 v -0.247145 -0.247145 l -0.815042,0.47798 -0.815043,0.477979 -1.273377,1.343358 -1.273378,1.343357 -0.311692,1.501415 -0.311693,1.501415 0.348116,1.520853 0.348115,1.520852 z m 54.291403,-0.686004 0.22541,-0.869921 -0.25965,-1.749381 -0.25964,-1.749382 -0.73989,-1.564189 -0.7399,-1.56419 -1.26779,-1.235008 -1.26779,-1.235007 -1.52606,-0.697115 -1.52606,-0.697114 -1.25677,-0.618841 -1.25677,-0.618841 v 0.175575 0.175576 l 0.80296,0.974129 0.80296,0.974128 2.24864,1.358244 2.24864,1.358244 1.01865,1.365932 1.01864,1.365932 0.43693,0.864669 0.43694,0.864669 0.31756,1.995906 0.31756,1.995907 z m -43.56725,-13.979354 1.87289,-1.719792 2.21755,-1.109392 2.21753,-1.109392 1.94243,-0.534101 1.94242,-0.534102 2.36177,-0.04304 2.36177,-0.04305 0.12089,-0.195627 0.12092,-0.195627 -1.38239,-0.166056 -1.38239,-0.166056 -2.42383,-0.0023 -2.42383,-0.0023 -1.61057,0.501269 -1.61058,0.501269 -1.33029,0.85364 -1.33028,0.85364 -1.1382,1.35707 -1.13821,1.35707 -0.63025,1.058333 -0.63025,1.058334 z m 30.69292,-0.264583 h 0.0824 l -0.95711,-1.521354 -0.95711,-1.521355 -0.82554,-0.892296 -0.82555,-0.892297 -1.32291,-0.626473 -1.32292,-0.626472 -1.7198,0.01959 -1.71978,0.01959 1.4552,0.322677 1.45521,0.322677 0.80208,0.425795 0.80207,0.425795 1.30364,1.412166 1.30363,1.412166 1.18201,0.859896 1.182,0.859896 z"
       id="path2"
       inkscape:export-filename="path2.png"
       inkscape:export-xdpi="96"
       inkscape:export-ydpi="96" />
  </g>
</svg>
